<?xml version="1.0" encoding="UTF-8"?>
<svg xmlns="http://www.w3.org/2000/svg" viewBox="0 0 24 24"><title>vk</title><path fill-rule="evenodd" clip-rule="evenodd" d="M12 24c6.627 0 12-5.373 12-12S18.627 0 12 0 0 5.373 0 12s5.373 12 12 12zm.785-8.034h-.957s-2.11.112-3.968-1.584c-2.027-1.85-3.817-5.52-3.817-5.52s-.103-.24.01-.357c.125-.13.468-.139.468-.139l2.287-.013s.215.032.37.13a.634.634 0 01.198.236s.37.819.858 1.56c.955 1.446 1.4 1.762 1.725 1.607.472-.225.33-2.044.33-2.044s.009-.66-.238-.954c-.19-.228-.55-.295-.71-.313-.128-.015.083-.277.357-.394.411-.177 1.137-.187 1.996-.18.669.007.861.043 1.123.098.607.129.588.54.547 1.428a19.4 19.4 0 00-.027.928c0 .08-.002.166-.005.254-.014.454-.03.975.311 1.168.175.099.604.015 1.675-1.58.508-.755.888-1.644.888-1.644s.083-.158.213-.226c.132-.07.31-.048.31-.048l2.406-.013s.723-.075.84.21c.123.3-.27 1.002-1.253 2.15-.927 1.083-1.38 1.485-1.345 1.839.026.261.321.496.892.96 1.184.963 1.5 1.469 1.575 1.589l.013.022c.53.77-.587.83-.587.83l-2.137.027s-.46.08-1.064-.284c-.315-.19-.624-.5-.919-.797-.45-.452-.866-.87-1.22-.771-.596.165-.578 1.29-.578 1.29s.005.24-.13.368c-.149.14-.437.168-.437.168z" fill="#FFF"></path></svg>